<?xml version="1.0" standalone="no"?>
<!DOCTYPE svg PUBLIC "-//W3C//DTD SVG 20010904//EN"
 "http://www.w3.org/TR/2001/REC-SVG-20010904/DTD/svg10.dtd">
<svg version="1.0" xmlns="http://www.w3.org/2000/svg"
 width="500.000000pt" height="500.000000pt" viewBox="0 0 500.000000 500.000000"
 preserveAspectRatio="xMidYMid meet">

<g transform="translate(0.000000,500.000000) scale(0.100000,-0.100000)"
fill="#000000" stroke="none">
<path d="M2110 4110 l0 -30 250 0 249 0 -17 30 -17 30 -232 0 -233 0 0 -30z"/>
<path d="M2110 3990 l0 -30 330 0 330 0 0 30 0 30 -330 0 -330 0 0 -30z"/>
<path d="M2130 3640 l0 -30 330 0 330 0 0 30 0 30 -330 0 -330 0 0 -30z"/>
<path d="M2134 3536 c-3 -8 -4 -23 -2 -33 3 -17 23 -18 328 -18 l325 0 0 30 0
30 -323 3 c-275 2 -323 0 -328 -12z"/>
<path d="M2821 3375 l-21 -36 -29 21 c-43 32 -73 24 -84 -24 -9 -38 -10 -38
-48 -32 -27 4 -42 2 -53 -10 -9 -8 -16 -16 -16 -17 0 -1 4 -18 10 -37 7 -25 7
-36 -3 -42 -6 -4 -108 -8 -224 -8 l-213 0 0 -30 0 -30 178 0 c161 0 181 -2
195 -18 36 -40 26 -42 -178 -42 l-195 0 0 -30 0 -30 165 0 c91 0 165 -4 165
-9 0 -5 16 -18 36 -30 l35 -21 -21 -30 c-29 -40 -23 -71 15 -83 17 -5 35 -10
42 -12 9 -3 9 -13 3 -36 -13 -46 2 -61 59 -57 43 3 45 2 51 -28 4 -17 10 -36
14 -42 10 -17 51 -15 66 3 19 23 36 18 60 -15 32 -44 47 -40 93 24 14 19 15
19 42 -2 48 -38 85 -20 85 41 0 23 3 25 53 23 57 -1 58 2 46 74 -3 19 1 25 16
28 52 8 64 13 70 32 4 13 -1 31 -14 49 -27 37 -27 38 9 56 43 22 41 59 -5 86
l-35 21 20 28 c36 50 18 90 -40 90 -21 0 -22 3 -16 44 9 55 -11 71 -65 56 -19
-6 -34 -10 -35 -10 -1 0 -7 20 -13 44 -13 53 -35 64 -73 36 -36 -26 -40 -25
-60 10 -24 43 -60 41 -87 -5z m249 -200 c6 -8 8 -20 4 -27 -36 -60 -217 -307
-229 -312 -9 -3 -44 18 -88 54 -88 71 -100 84 -95 107 6 33 38 25 99 -26 33
-28 64 -51 67 -51 4 0 41 48 82 107 120 170 132 182 160 148z"/>
</g>
</svg>
